<svg width="10" height="12" viewBox="0 0 10 12" fill="none" xmlns="http://www.w3.org/2000/svg">
<path d="M5.00008 0.166656C2.74258 0.166656 0.916748 1.99249 0.916748 4.24999C0.916748 7.31249 5.00008 11.8333 5.00008 11.8333C5.00008 11.8333 9.08342 7.31249 9.08342 4.24999C9.08342 1.99249 7.25758 0.166656 5.00008 0.166656ZM5.00008 5.70832C4.61331 5.70832 4.24238 5.55468 3.96888 5.28119C3.69539 5.0077 3.54175 4.63676 3.54175 4.24999C3.54175 3.86322 3.69539 3.49228 3.96888 3.21879C4.24238 2.9453 4.61331 2.79166 5.00008 2.79166C5.38686 2.79166 5.75779 2.9453 6.03128 3.21879C6.30477 3.49228 6.45842 3.86322 6.45842 4.24999C6.45842 4.63676 6.30477 5.0077 6.03128 5.28119C5.75779 5.55468 5.38686 5.70832 5.00008 5.70832V5.70832Z" fill="white"/>
</svg>
