<svg width="40" height="40" viewBox="0 0 40 40" fill="none" xmlns="http://www.w3.org/2000/svg">
<rect width="40" height="40" rx="20" fill="#5E94FF"/>
<path d="M20.148 23.112C19.8867 23.1307 19.616 23.1493 19.336 23.168C19.0747 23.168 18.804 23.168 18.524 23.168C18.2067 23.168 17.8893 23.168 17.572 23.168C17.2547 23.168 16.9 23.1493 16.508 23.112V28.796C16.508 29.3933 16.3587 29.7667 16.06 29.916C15.78 30.0467 15.4253 30.112 14.996 30.112C14.772 30.112 14.5947 30.0933 14.464 30.056C14.3333 30.0373 14.2213 29.9907 14.128 29.916C14.0533 29.8227 13.988 29.692 13.932 29.524C13.8947 29.356 13.8667 29.1227 13.848 28.824C13.8107 28.488 13.7827 28.0027 13.764 27.368C13.7453 26.7147 13.7267 25.8747 13.708 24.848C13.708 23.8213 13.6987 22.58 13.68 21.124C13.68 19.6493 13.68 17.9227 13.68 15.944C13.68 15.1787 13.7733 14.4413 13.96 13.732C14.1467 13.004 14.4827 12.3693 14.968 11.828C15.4533 11.268 16.1067 10.82 16.928 10.484C17.768 10.148 18.832 9.98 20.12 9.98C21.0347 9.98 21.9213 10.0827 22.78 10.288C23.6573 10.4933 24.432 10.848 25.104 11.352C25.776 11.856 26.3173 12.5373 26.728 13.396C27.1387 14.2547 27.344 15.328 27.344 16.616C27.344 18.3333 26.9707 19.668 26.224 20.62C25.496 21.5533 24.488 22.216 23.2 22.608L26.952 27.76C27.288 28.208 27.456 28.6653 27.456 29.132C27.456 29.5053 27.3253 29.7947 27.064 30C26.8213 30.224 26.5133 30.336 26.14 30.336C25.7293 30.336 25.3747 30.224 25.076 30C24.7773 29.7573 24.4973 29.4493 24.236 29.076L20.148 23.112ZM24.544 16.588C24.544 15.3 24.152 14.348 23.368 13.732C22.6027 13.0973 21.38 12.78 19.7 12.78C19.084 12.78 18.5707 12.836 18.16 12.948C17.7493 13.0413 17.4227 13.228 17.18 13.508C16.9373 13.788 16.76 14.18 16.648 14.684C16.5547 15.1693 16.508 15.7947 16.508 16.56C16.508 17.1013 16.508 17.736 16.508 18.464C16.508 19.192 16.5173 19.8547 16.536 20.452C16.9653 20.4707 17.4413 20.48 17.964 20.48C18.5053 20.48 19.0093 20.48 19.476 20.48C19.9987 20.48 20.5493 20.452 21.128 20.396C21.7253 20.3213 22.276 20.1533 22.78 19.892C23.284 19.612 23.704 19.22 24.04 18.716C24.376 18.1933 24.544 17.484 24.544 16.588Z" fill="white"/>
</svg>
