<svg width="21" height="21" viewBox="0 0 21 21" fill="none" xmlns="http://www.w3.org/2000/svg">
<path d="M17.606 15.6598C17.2192 14.7434 16.6578 13.9111 15.9531 13.2091C15.2506 12.5051 14.4183 11.9438 13.5024 11.5562C13.4942 11.5521 13.486 11.55 13.4778 11.5459C14.7554 10.623 15.586 9.11982 15.586 7.42383C15.586 4.61426 13.3096 2.33789 10.5001 2.33789C7.69048 2.33789 5.41411 4.61426 5.41411 7.42383C5.41411 9.11982 6.24468 10.623 7.52232 11.5479C7.51411 11.5521 7.50591 11.5541 7.49771 11.5582C6.57896 11.9458 5.75454 12.5016 5.04702 13.2111C4.34301 13.9137 3.7817 14.7459 3.39409 15.6618C3.01331 16.5585 2.80794 17.5199 2.78911 18.4939C2.78857 18.5158 2.79241 18.5376 2.80041 18.558C2.8084 18.5784 2.8204 18.5969 2.83569 18.6126C2.85098 18.6283 2.86925 18.6407 2.88943 18.6492C2.90961 18.6577 2.93128 18.6621 2.95318 18.6621H4.18365C4.27388 18.6621 4.34566 18.5903 4.34771 18.5021C4.38872 16.9189 5.02447 15.4362 6.14829 14.3124C7.31109 13.1496 8.85533 12.5098 10.5001 12.5098C12.1448 12.5098 13.689 13.1496 14.8518 14.3124C15.9756 15.4362 16.6114 16.9189 16.6524 18.5021C16.6544 18.5924 16.7262 18.6621 16.8165 18.6621H18.0469C18.0688 18.6621 18.0905 18.6577 18.1107 18.6492C18.1309 18.6407 18.1491 18.6283 18.1644 18.6126C18.1797 18.5969 18.1917 18.5784 18.1997 18.558C18.2077 18.5376 18.2115 18.5158 18.211 18.4939C18.1905 17.5137 17.9875 16.5601 17.606 15.6598ZM10.5001 10.9512C9.55874 10.9512 8.67281 10.5841 8.0063 9.91758C7.3398 9.25107 6.97271 8.36514 6.97271 7.42383C6.97271 6.48252 7.3398 5.59658 8.0063 4.93008C8.67281 4.26357 9.55874 3.89648 10.5001 3.89648C11.4414 3.89648 12.3273 4.26357 12.9938 4.93008C13.6603 5.59658 14.0274 6.48252 14.0274 7.42383C14.0274 8.36514 13.6603 9.25107 12.9938 9.91758C12.3273 10.5841 11.4414 10.9512 10.5001 10.9512Z" fill="white" fill-opacity="0.9"/>
</svg>
